<svg width="305" height="184" viewBox="0 0 305 184" fill="none" xmlns="http://www.w3.org/2000/svg">
<path d="M144 120.5C115.251 120.5 95.9604 122.294 75.5774 124.618C-43.4897 138.194 -19.1336 184.519 156.581 182.962C339.399 181.341 346.875 133.645 208.374 123.016C190.967 121.68 165.959 120.5 144 120.5Z" fill="#0E022B"/>
<path d="M75.5774 124.618C95.9604 122.294 115.251 120.5 144 120.5C165.959 120.5 190.967 121.68 208.374 123.016C189.647 83.1652 137.422 -1.67517 75.5774 124.618Z" fill="#0E022B"/>
<path d="M75.5774 124.618C95.9604 122.294 115.251 120.5 144 120.5C165.959 120.5 190.967 121.68 208.374 123.016M75.5774 124.618C137.422 -1.67517 189.647 83.1652 208.374 123.016M75.5774 124.618C-43.4897 138.194 -19.1336 184.519 156.581 182.962C339.399 181.341 346.875 133.645 208.374 123.016" stroke="white" stroke-width="2" stroke-linecap="round" stroke-linejoin="round"/>
<path d="M300 2C299.478 1.14712 299.477 1.14746 299.476 1.14802L299.473 1.15019L299.46 1.15834L299.409 1.18984C299.364 1.21757 299.297 1.25872 299.21 1.31313C299.035 1.42193 298.777 1.58372 298.442 1.79703C297.77 2.22364 296.788 2.85635 295.538 3.68341C293.039 5.33746 289.472 7.76927 285.193 10.8848C276.636 17.1147 265.224 26.085 253.807 37.044C231.032 58.9073 208 88.9121 208 121C208 121.317 208.151 121.616 208.406 121.804C208.661 121.993 208.99 122.049 209.293 121.956L209 121C209.293 121.956 209.294 121.956 209.294 121.956L209.296 121.955L209.303 121.953L209.326 121.946L209.414 121.918C209.491 121.894 209.604 121.857 209.751 121.808C210.045 121.711 210.477 121.565 211.035 121.366C212.149 120.969 213.765 120.362 215.783 119.522C219.818 117.843 225.464 115.229 231.926 111.485C244.846 104 261.055 91.9812 274.16 73.8551C287.249 55.7516 293.957 37.8127 297.394 24.3972C299.112 17.6887 300.013 12.1081 300.485 8.19851C300.721 6.24355 300.849 4.70591 300.919 3.65341C300.954 3.12715 300.974 2.72212 300.985 2.44681C300.991 2.30915 300.995 2.20392 300.997 2.13217L300.999 2.04978L301 2.02767L301 2.02142L301 2.01951C301 2.01889 301 2.01841 300 2ZM300 2L299.478 1.14712C299.789 0.956468 300.18 0.950729 300.497 1.13215C300.814 1.31357 301.007 1.65331 301 2.01841L300 2Z" fill="#D3ADF7" stroke="white" stroke-width="2" stroke-linecap="round" stroke-linejoin="round"/>
</svg>
