<svg width="48" height="48" viewBox="0 0 48 48" fill="none" xmlns="http://www.w3.org/2000/svg">
<path d="M1.51143 48H42.2016C45.4006 48 48 45.295 48 41.9704V20.6837H44.9763V41.9713C44.9763 43.5629 43.7326 44.8557 42.2016 44.8557H3.02463V3.14427H28.8336V0H1.51143C0.676095 0 0 0.703762 0 1.57213V46.4269C0 47.2953 0.675205 48 1.51143 48Z" fill="black"/>
<path d="M13.3159 23.0556L13.3141 23.0565C13.3123 23.0583 13.3123 23.0602 13.3123 23.0602C13.1905 23.1887 13.0988 23.3441 13.0241 23.5096C13.0036 23.5513 12.9894 23.5892 12.9734 23.6326C12.9574 23.6752 12.9351 23.714 12.9227 23.7593L9.35718 37.4702C9.21663 38.014 9.36608 38.5938 9.74772 38.9924C10.0359 39.2911 10.422 39.4529 10.8161 39.4529C10.9478 39.4529 11.0821 39.4353 11.2102 39.3974L23.8923 35.8342C23.9759 35.849 24.056 35.8851 24.1405 35.8851C24.5284 35.8851 24.9153 35.7316 25.2107 35.4246L45.7479 14.0731C46.8421 12.9347 47.4471 11.4209 47.4471 9.81081C47.4471 8.20076 46.8421 6.68688 45.7479 5.54847L42.0525 1.70692C39.8632 -0.570823 36.0389 -0.567124 33.8531 1.70692L13.3159 23.0556ZM35.9935 3.92918C37.0379 2.84071 38.8669 2.84163 39.9148 3.9301L43.6102 7.77073C44.1351 8.31543 44.4233 9.03954 44.4233 9.81081C44.4233 10.5821 44.1351 11.3053 43.6102 11.8509L42.4982 13.0069L34.8797 5.08793L35.9935 3.92918ZM32.7411 7.31111L40.3596 15.23L24.1423 32.0898L16.522 24.1699L32.7411 7.31111ZM15.6315 27.6887L21.091 33.3651L12.9645 35.6502L15.1609 27.2014L15.6315 27.6887Z" fill="black"/>
<path d="M34.374 15.6727L32.235 13.4497L22.7461 23.3167L24.8851 25.5397L34.374 15.6727Z" fill="black"/>
</svg>
