<svg width="48" height="48" viewBox="0 0 48 48" fill="none" xmlns="http://www.w3.org/2000/svg">
<path d="M48 14.9824V7.875C48 7.04647 47.1307 6.37412 46.0606 6.37412H33.2115V1.5C33.2115 0.672354 32.3434 0 31.2733 0H16.7278C15.6566 0 14.7873 0.672354 14.7873 1.5V6.37412H1.93939C0.868165 6.37412 0 7.04647 0 7.875V14.9824C0 15.81 0.868165 16.4815 1.93939 16.4815H2.49611V46.5C2.49611 47.3276 3.36428 48 4.43437 48H38.0669C42.1681 48 45.505 45.42 45.505 42.2488V16.4824H46.0595C47.1307 16.4824 48 15.8109 48 14.9824ZM18.6661 3H29.3328V6.37412H18.6661V3ZM41.6274 42.2497C41.6274 43.7665 40.0302 45 38.068 45H6.37604V16.4824L41.6274 16.4841V42.2497ZM44.1201 13.4824H3.87765V9.375H16.7278H31.2733H44.1212V13.4824H44.1201Z" fill="black"/>
<path d="M16.2407 22.5H12.3619V40.125H16.2407V22.5Z" fill="black"/>
<path d="M25.9377 22.5H22.0589V40.125H25.9377V22.5Z" fill="black"/>
<path d="M35.6346 22.5H31.7559V40.125H35.6346V22.5Z" fill="black"/>
</svg>
