<svg width="243" height="243" viewBox="0 0 243 243" fill="none" xmlns="http://www.w3.org/2000/svg">
<path d="M114.848 192C92.0005 192 76.6705 193.435 60.4721 195.294C-34.1508 206.155 -14.7949 243.216 124.846 241.969C270.132 240.673 276.073 202.516 166.006 194.013C152.173 192.944 132.299 192 114.848 192Z" fill="#0E022B"/>
<path d="M60.4721 195.294C76.6705 193.435 92.0005 192 114.848 192C132.299 192 152.173 192.944 166.006 194.013C151.123 162.132 109.62 94.2599 60.4721 195.294Z" fill="#0E022B"/>
<path d="M60.4721 195.294C76.6705 193.435 92.0005 192 114.848 192C132.299 192 152.173 192.944 166.006 194.013M60.4721 195.294C109.62 94.2599 151.123 162.132 166.006 194.013M60.4721 195.294C-34.1508 206.155 -14.7949 243.216 124.846 241.969C270.132 240.673 276.073 202.516 166.006 194.013" stroke="white" stroke-width="2" stroke-linecap="round" stroke-linejoin="round"/>
<path d="M239 2C238.223 1.37082 238.222 1.37137 238.222 1.37226L238.219 1.37573L238.208 1.38877L238.168 1.43909C238.132 1.48337 238.08 1.5491 238.011 1.63597C237.873 1.8097 237.668 2.06802 237.403 2.40856C236.872 3.08964 236.094 4.09967 235.106 5.41988C233.129 8.06026 230.308 11.9417 226.923 16.914C220.155 26.8579 211.133 41.1689 202.111 58.6457C184.075 93.5846 166 141.249 166 192C166 192.363 166.196 192.697 166.513 192.874C166.83 193.05 167.218 193.041 167.527 192.85L167 192C167.527 192.85 167.527 192.85 167.528 192.849L167.53 192.848L167.536 192.845L167.556 192.832C167.573 192.821 167.597 192.806 167.628 192.786C167.691 192.745 167.782 192.686 167.901 192.607C168.138 192.449 168.483 192.212 168.928 191.892C169.817 191.252 171.103 190.279 172.706 188.933C175.911 186.24 180.387 182.059 185.503 176.077C195.737 164.112 208.528 144.955 218.856 116.128C229.174 87.33 234.458 58.806 237.163 37.4899C238.517 26.8296 239.226 17.9662 239.596 11.7652C239.782 8.66458 239.883 6.22921 239.937 4.56723C239.964 3.73623 239.98 3.09855 239.989 2.6677C239.993 2.45228 239.996 2.28856 239.998 2.17823L239.999 2.053L240 2.02081L240 2.0124L240 2.01011C240 2.00951 240 2.00912 239 2ZM239 2L238.223 1.37082C238.49 1.04025 238.938 0.915099 239.338 1.05886C239.738 1.20262 240.004 1.58383 240 2.00912L239 2Z" fill="#D3ADF7" stroke="white" stroke-width="2" stroke-linecap="round" stroke-linejoin="round"/>
</svg>
