<svg width="48" height="48" viewBox="0 0 48 48" fill="none" xmlns="http://www.w3.org/2000/svg">
<path d="M6.75483 20.5334L18.7537 23.7415L19.5411 20.7648L7.5422 17.5567L6.75483 20.5334Z" fill="black"/>
<path d="M6.75464 29.4892L18.7535 32.6973L19.5407 29.7215L7.54178 26.5134L6.75464 29.4892Z" fill="black"/>
<path d="M28.4581 13.3428L29.2449 16.3198L41.2468 13.1138L40.46 10.1368L28.4581 13.3428Z" fill="black"/>
<path d="M28.461 21.2749L29.2475 24.251L41.2494 21.0449L40.4629 18.0688L28.461 21.2749Z" fill="black"/>
<path d="M28.4612 29.205L29.2477 32.1812L41.2504 28.9749L40.4639 25.9987L28.4612 29.205Z" fill="black"/>
<path d="M36.0155 35.1119L36.8022 38.0889L41.2447 36.9022L40.458 33.9252L36.0155 35.1119Z" fill="black"/>
<path d="M28.4615 37.1372L29.248 40.1133L33.6888 38.927L32.9022 35.9509L28.4615 37.1372Z" fill="black"/>
<path d="M1.13087 41.7844L23.5986 47.9456C23.7301 47.981 23.8662 48 24.0014 48C24.1347 48 24.2708 47.981 24.4023 47.9456L46.87 41.7844C47.5368 41.6023 48 40.9935 48 40.2987V1.53921C48 1.05997 47.7765 0.607006 47.3981 0.315296C47.0196 0.0253973 46.5231 -0.0715389 46.0654 0.0534799L24.0005 6.1033L1.93463 0.0534799C1.48049 -0.0715389 0.982186 0.0253973 0.601927 0.315296C0.223471 0.607006 0 1.05997 0 1.53921V40.2987C0.000901087 40.9935 0.46316 41.6023 1.13087 41.7844ZM25.5323 8.87546L44.9354 3.55491V39.1228L25.5323 44.4424V8.87546ZM3.0646 3.55582L22.4677 8.87546V44.4424L3.0646 39.1228V3.55582Z" fill="black"/>
</svg>
